<svg width="51" height="51" viewBox="0 0 51 51" fill="none" xmlns="http://www.w3.org/2000/svg">
<g clip-path="url(#clip0_1063_199)">
<path d="M25.301 50.602C39.2744 50.602 50.602 39.2744 50.602 25.301C50.602 11.3276 39.2744 0 25.301 0C11.3276 0 0 11.3276 0 25.301C0 39.2744 11.3276 50.602 25.301 50.602Z" fill="#26A842"/>
<path d="M25.6491 26.1709C25.5907 26.1705 25.5333 26.186 25.4831 26.2159C25.433 26.2457 25.3919 26.2887 25.3644 26.3402C25.3369 26.3917 25.324 26.4497 25.3271 26.508C25.3302 26.5663 25.3493 26.6227 25.3821 26.6709L27.5821 29.9949L28.1101 30.795L31.6981 36.228L45.1081 15.7079C45.193 15.5782 45.2413 15.4279 45.2478 15.2729C45.2543 15.118 45.2187 14.9642 45.1449 14.8278C45.0712 14.6914 44.9619 14.5775 44.8286 14.4981C44.6954 14.4187 44.5432 14.3769 44.3881 14.377H6.21809C6.06271 14.3769 5.91019 14.4189 5.77678 14.4986C5.64337 14.5782 5.53405 14.6925 5.4604 14.8294C5.38676 14.9662 5.35155 15.1204 5.35854 15.2756C5.36553 15.4309 5.41443 15.5813 5.50008 15.711L25.4091 45.8439L29.4911 39.597L22.5011 29.013L16.9641 20.6319H33.6951L30.0731 26.1729L25.6491 26.1709Z" fill="white"/>
</g>
<defs>
<clipPath id="clip0_1063_199">
<rect width="50.603" height="50.603" fill="white"/>
</clipPath>
</defs>
</svg>
